<svg xmlns="http://www.w3.org/2000/svg" viewBox="0 0 835.85 200"><defs><style>.cls-1{fill:#5356c9;}</style></defs><g id="Layer_2" data-name="Layer 2"><g id="Layer_1-2" data-name="Layer 1"><path d="M274.51,68.22q-15.67-8.73-35.69-8.73-20.55,0-36.59,9a65.44,65.44,0,0,0-25.16,24.77Q168,109,168,129.58q0,20.28,9.37,36.2a66,66,0,0,0,26.44,25q17.07,9.12,39.93,9.12,18,0,32-5.78a60.33,60.33,0,0,0,23.23-16.56l-17.2-19.77a44.25,44.25,0,0,1-16.43,11.3,56.88,56.88,0,0,1-20.79,3.59,52.16,52.16,0,0,1-23.62-5.13A37.6,37.6,0,0,1,204.93,153a39.14,39.14,0,0,1-4.87-13.1H307.62c.17-1.54.3-3.16.39-4.88s.13-3.25.13-4.62q0-21.57-9-37.48A63.26,63.26,0,0,0,274.51,68.22Zm-70.22,36.33A36.45,36.45,0,0,1,218.15,90.3a40.51,40.51,0,0,1,20.67-5.13,40,40,0,0,1,20.41,5.13,37.63,37.63,0,0,1,14,14.12,37.25,37.25,0,0,1,4.55,14.12h-78A40.28,40.28,0,0,1,204.29,104.55Z"/><polygon points="381.93 162.66 339.42 61.03 306.04 61.03 364.84 198.13 397.96 198.13 456.75 61.03 425.94 61.03 381.93 162.66"/><rect x="478.77" y="61.03" width="32.09" height="137.1"/><rect x="649.22" y="61.03" width="32.09" height="137.1"/><path d="M603.37,5.83q-23.62,0-36.33,13T554.33,53.33v8.73H531.74V87.73h22.59v110.4h32.09V87.73h36.72V62.06H585.4V53.84q0-11,5.13-16.56t15.15-5.52a32.72,32.72,0,0,1,9.5,1.41,25.21,25.21,0,0,1,8.21,4.24l8.73-24.13a34,34,0,0,0-12.71-5.65A69.16,69.16,0,0,0,603.37,5.83Z"/><path d="M796.18,167.84a40.72,40.72,0,0,1-19.12,4.62,44,44,0,0,1-21.31-5.14,36.79,36.79,0,0,1-14.89-14.76q-5.4-9.63-5.4-23t5.4-23a36.92,36.92,0,0,1,14.89-14.76,44.09,44.09,0,0,1,21.31-5.13,40.72,40.72,0,0,1,19.12,4.62,39.41,39.41,0,0,1,15,14.37l24.65-14.37a53.75,53.75,0,0,0-23.24-23.75q-15.27-8.09-35.3-8.09-21.57,0-38.38,9a66.78,66.78,0,0,0-26.32,24.77q-9.5,15.8-9.5,36.33,0,20.28,9.5,36.2a67.27,67.27,0,0,0,26.32,25q16.82,9.12,38.38,9.12,20,0,35.3-8.35a55.57,55.57,0,0,0,23.24-23.74L811.2,153.46A39.44,39.44,0,0,1,796.18,167.84Z"/><path d="M150.25,0V198.13H118.46V179.54A51.53,51.53,0,0,1,103.78,192a61.5,61.5,0,0,1-22.12,7.32V171a41.26,41.26,0,0,0,15-4.92,39.88,39.88,0,0,0,15.23-15.49A44,44,0,0,0,117,135.54a59.35,59.35,0,0,0-.19-18.71,42.36,42.36,0,0,0-4.9-13.9A40,40,0,0,0,96.7,87.58a41.28,41.28,0,0,0-15-4.93v-28a61.69,61.69,0,0,1,21.59,7.17,52.26,52.26,0,0,1,13.89,11.25V0Z"/><path class="cls-1" d="M81.66,54.65v57.81a4.36,4.36,0,0,1-4.36,4.37h-73A4.13,4.13,0,0,1,.26,112,69.87,69.87,0,0,1,8.44,88.38,66,66,0,0,1,34.23,63q16.41-9.09,37-9.09A74,74,0,0,1,81.66,54.65Z"/><path class="cls-1" d="M81.66,139.91V199.3a75.36,75.36,0,0,1-10.45.7q-20.58,0-37-9.21A67,67,0,0,1,8.44,165.28,70.32,70.32,0,0,1,0,140.19a4.11,4.11,0,0,1,4.09-4.65H77.3A4.37,4.37,0,0,1,81.66,139.91Z"/><path class="cls-1" d="M510.42,43.67V27.51a4.06,4.06,0,0,0-4.05-4h0a29,29,0,0,0-14.44,3.59,26.29,26.29,0,0,0-12.75,16.69A3.93,3.93,0,0,0,483,48.64h22.5A5,5,0,0,0,510.42,43.67Z"/><path class="cls-1" d="M649,43.67V27.51a4.05,4.05,0,0,1,4-4h.05a29,29,0,0,1,14.44,3.59,26.12,26.12,0,0,1,10.06,10,26.46,26.46,0,0,1,2.69,6.72,3.94,3.94,0,0,1-3.81,4.89H654A5,5,0,0,1,649,43.67Z"/></g></g></svg>